<svg xmlns="http://www.w3.org/2000/svg" xmlns:xlink="http://www.w3.org/1999/xlink" viewBox="0 0 309.92 66.45"><defs><style>.cls-1,.cls-2{fill:none;}.cls-1{clip-rule:evenodd;}.cls-3{clip-path:url(#clip-path);}.cls-4{clip-path:url(#clip-path-2);}.cls-5{isolation:isolate;}.cls-6{clip-path:url(#clip-path-3);}.cls-7{clip-path:url(#clip-path-4);}.cls-8{clip-path:url(#clip-path-5);}.cls-9{fill:#fffffe;}.cls-10{clip-path:url(#clip-path-6);}.cls-11{clip-path:url(#clip-path-8);}.cls-12{clip-path:url(#clip-path-10);}.cls-13{clip-path:url(#clip-path-12);}.cls-14{clip-path:url(#clip-path-14);}.cls-15{clip-path:url(#clip-path-16);}.cls-16{clip-path:url(#clip-path-18);}.cls-17{clip-path:url(#clip-path-20);}.cls-18{clip-path:url(#clip-path-22);}</style><clipPath id="clip-path" transform="translate(-798 -269.41)"><polyline class="cls-1" points="803 274.41 1102.92 274.41 1102.92 330.83 803 330.83"/></clipPath><clipPath id="clip-path-2" transform="translate(-798 -269.41)"><rect class="cls-2" width="1200" height="3773"/></clipPath><clipPath id="clip-path-3" transform="translate(-798 -269.41)"><rect class="cls-2" x="818" y="282" width="41" height="49"/></clipPath><clipPath id="clip-path-4" transform="translate(-798 -269.41)"><path class="cls-1" d="M850.51,282.51a.49.49,0,0,0-.35-.15h0a.55.55,0,0,0-.37.22l-31,44.78a.52.52,0,0,0-.07.42.49.49,0,0,0,.27.33,27.31,27.31,0,0,0,12,2.75,28.28,28.28,0,0,0,19.58-48.35"/></clipPath><clipPath id="clip-path-5" transform="translate(-798 -269.41)"><rect class="cls-2" x="803" y="274" width="300" height="57"/></clipPath><clipPath id="clip-path-6" transform="translate(-798 -269.41)"><path class="cls-1" d="M819.12,283.85h0l10.24,14.73.41-.59h0l13.79-19.88a.5.5,0,0,0-.19-.75,27.67,27.67,0,0,0-27.2,1.32.52.52,0,0,0-.14.72l3.09,4.45"/></clipPath><clipPath id="clip-path-8" transform="translate(-798 -269.41)"><path class="cls-1" d="M819.9,312.22l4.8-6.92-6.91-9.94h0l-7.49-10.78a.52.52,0,0,0-.39-.22h0a.53.53,0,0,0-.39.18,28.43,28.43,0,0,0,2.17,38.53.5.5,0,0,0,.35.14h.05a.54.54,0,0,0,.36-.21l7.47-10.78"/></clipPath><clipPath id="clip-path-10" transform="translate(-798 -269.41)"><path class="cls-1" d="M867.53,325.82a.45.45,0,0,1-.4-.24.49.49,0,0,1,0-.47l13.73-19.78-17.31-25a.47.47,0,0,1,0-.47.45.45,0,0,1,.4-.24H872a.45.45,0,0,1,.37.19l13.09,18.84,13.07-18.84a.44.44,0,0,1,.36-.19H907a.45.45,0,0,1,.4.24.49.49,0,0,1,0,.47L876,325.63a.44.44,0,0,1-.36.19h-8.09"/></clipPath><clipPath id="clip-path-12" transform="translate(-798 -269.41)"><path class="cls-1" d="M914.29,326a18.47,18.47,0,0,1-2.32-.16c-8.69-1.12-14.75-8.26-14.75-17.35,0-9.95,7.34-17.46,17.08-17.46,9.25,0,16,7.28,16.1,17.31a17.91,17.91,0,0,1-.08,2.08l-.1.91a.45.45,0,0,1-.44.4H904.91l.06.21a9.47,9.47,0,0,0,9.45,7.21c3.38,0,6.1-1.34,7.29-3.6a.45.45,0,0,1,.4-.24h7a.45.45,0,0,1,.37.19.44.44,0,0,1,0,.4l-.18.55c-1.72,5.08-6.39,8.58-12.49,9.38A20,20,0,0,1,914.29,326Zm-.24-28.14A9.46,9.46,0,0,0,905,305l-.06.22h17.83l0-.2c-1-4.45-4.12-7.15-8.37-7.22h-.29Z"/></clipPath><clipPath id="clip-path-14" transform="translate(-798 -269.41)"><path class="cls-1" d="M948,326.08a23.37,23.37,0,0,1-3.66-.29c-6-1-9.79-4.43-11-10a.44.44,0,0,1,.09-.38.42.42,0,0,1,.34-.17h6.53a.45.45,0,0,1,.41.27c1.12,2.58,3.57,3.84,7.47,3.84s6.74-1.58,6.74-3.92-2.77-3.15-4-3.33L944,310.94c-8.37-1.32-10.13-5.95-10.13-9.61,0-6.27,5.42-10.48,13.5-10.48,5.44,0,12.11,2.24,14,8.44a15.62,15.62,0,0,1,.43,1.73.43.43,0,0,1-.1.36.44.44,0,0,1-.34.16H955a.45.45,0,0,1-.42-.3A6.75,6.75,0,0,0,954,300c-1.4-2.1-4.29-2.58-6.62-2.58-3.72,0-6.22,1.44-6.22,3.58,0,.63,0,2.56,4.68,3.27l6,1.06c6.76,1.12,10.19,4.44,10.19,9.87s-3.91,9.52-10.45,10.59a23.31,23.31,0,0,1-3.64.29"/></clipPath><clipPath id="clip-path-16" transform="translate(-798 -269.41)"><path class="cls-1" d="M974.87,325.16a.47.47,0,0,1-.42-.29l-12.1-32.48a.46.46,0,0,1,0-.41.45.45,0,0,1,.37-.2h7a.46.46,0,0,1,.42.3l7.24,20.09,6.72-20.08a.45.45,0,0,1,.42-.31h5.46a.44.44,0,0,1,.42.3l6.68,20,7.36-20.05a.44.44,0,0,1,.41-.3h7a.44.44,0,0,1,.36.19.48.48,0,0,1,.05.42l-12.1,32.47a.43.43,0,0,1-.42.29h-5.48a.44.44,0,0,1-.42-.3l-6.57-19.72-6.6,19.72a.44.44,0,0,1-.42.3h-5.45"/></clipPath><clipPath id="clip-path-18" transform="translate(-798 -269.41)"><path class="cls-1" d="M1028.71,325.94a17.16,17.16,0,0,1-2.23-.15,17.49,17.49,0,1,1,11.38-32.32l.26.15V292a.45.45,0,0,1,.44-.45H1045a.4.4,0,0,1,.31.13.43.43,0,0,1,.14.32v32.8a.45.45,0,0,1-.45.45h-6.46a.45.45,0,0,1-.44-.45v-1.54l-.26.16a16.88,16.88,0,0,1-6.73,2.34A19.53,19.53,0,0,1,1028.71,325.94Zm.59-28.07a10.39,10.39,0,0,0-10.18,10.56,10.81,10.81,0,0,0,3,7.54,9.93,9.93,0,0,0,7.23,3.07,10.61,10.61,0,0,0,8.82-4.53V302.39A10.62,10.62,0,0,0,1029.3,297.87Z"/></clipPath><clipPath id="clip-path-20" transform="translate(-798 -269.41)"><path class="cls-1" d="M1051.16,325.29a.45.45,0,0,1-.44-.45V292a.45.45,0,0,1,.44-.45h6.46a.45.45,0,0,1,.44.45v2.72l.28-.23a15.64,15.64,0,0,1,10-3.55h1a.45.45,0,0,1,.44.45v6.3a.44.44,0,0,1-.43.45l-1,0a12.47,12.47,0,0,0-10.36,6v20.65a.44.44,0,0,1-.13.32.46.46,0,0,1-.31.13h-6.46"/></clipPath><clipPath id="clip-path-22" transform="translate(-798 -269.41)"><path class="cls-1" d="M1086.82,325.94a19.41,19.41,0,0,1-2.26-.15c-8.72-1.09-14.81-8.23-14.81-17.36,0-9.95,7.34-17.46,17.07-17.46,9.26,0,16,7.28,16.1,17.31a20.45,20.45,0,0,1-.07,2.08l-.1.92a.45.45,0,0,1-.45.4h-24.86l.06.22a9.48,9.48,0,0,0,9.45,7.21c3.37,0,6.1-1.35,7.29-3.6a.44.44,0,0,1,.39-.24h7a.44.44,0,0,1,.36.19.44.44,0,0,1,.06.4l-.18.54c-1.7,5-6.53,8.63-12.59,9.39a20.68,20.68,0,0,1-2.46.15Zm-.13-28.13a9.39,9.39,0,0,0-9.17,7.21l-.07.22h17.84l0-.21c-1-4.52-4.2-7.22-8.55-7.22Z"/></clipPath></defs><title>Asset 1</title><g id="Layer_2" data-name="Layer 2"><g id="Layer_1-2" data-name="Layer 1"><g class="cls-3"><g class="cls-4"><g class="cls-5"><g class="cls-6"><g class="cls-7"><g class="cls-8"><rect class="cls-9" x="15.62" y="7.95" width="50.25" height="58.5"/></g></g></g></g></g></g><g class="cls-10"><g class="cls-4"><rect class="cls-9" x="12.94" width="37.71" height="34.17"/></g></g><g class="cls-11"><g class="cls-4"><rect class="cls-9" y="9.95" width="31.7" height="48.85"/></g></g><g class="cls-12"><g class="cls-4"><rect class="cls-9" x="60.49" y="5.23" width="53.94" height="56.18"/></g></g><g class="cls-13"><g class="cls-4"><rect class="cls-9" x="94.22" y="16.57" width="43.18" height="44.97"/></g></g><g class="cls-14"><g class="cls-4"><rect class="cls-9" x="130.24" y="16.43" width="38.81" height="45.23"/></g></g><g class="cls-15"><g class="cls-4"><rect class="cls-9" x="159.32" y="17.37" width="60.04" height="43.38"/></g></g><g class="cls-16"><g class="cls-4"><rect class="cls-9" x="208.7" y="16.56" width="43.76" height="44.97"/></g></g><g class="cls-17"><g class="cls-4"><rect class="cls-9" x="247.72" y="16.56" width="29.13" height="44.32"/></g></g><g class="cls-18"><g class="cls-4"><rect class="cls-9" x="266.75" y="16.56" width="43.18" height="44.97"/></g></g></g></g></svg>