<?xml version="1.0" encoding="utf-8"?>
<!-- Generator: Adobe Illustrator 19.2.1, SVG Export Plug-In . SVG Version: 6.00 Build 0)  -->
<svg version="1.1" id="logo" xmlns="http://www.w3.org/2000/svg" xmlns:xlink="http://www.w3.org/1999/xlink" x="0px" y="0px"
	 viewBox="0 0 600 127.5" style="enable-background:new 0 0 600 127.5;" xml:space="preserve">
<style type="text/css">
	.st0{fill:#8DC23E;}
	.st1{fill:#434343;}
</style>
<g>
	<g>
		<path class="st0" d="M101.5,25.2c-0.2-0.2-0.4-0.3-0.7-0.3c0,0-0.1,0-0.1,0c-0.3,0-0.5,0.2-0.7,0.4L40,111.1
			c-0.2,0.2-0.2,0.5-0.1,0.8c0.1,0.3,0.3,0.5,0.5,0.6c7.3,3.5,15.2,5.3,23.3,5.3c29.8,0,54.1-24.3,54.1-54.1
			C117.7,49.1,112,35.4,101.5,25.2z"/>
		<path class="st0" d="M40.8,27.7L40.8,27.7L60.6,56l0.8-1.1c0,0,0,0,0,0l26.7-38.1c0.2-0.2,0.2-0.5,0.1-0.8
			c-0.1-0.3-0.3-0.5-0.5-0.6C80.3,11.6,72,9.6,63.6,9.6c-10.1,0-20,2.8-28.6,8.2c-0.2,0.1-0.4,0.4-0.4,0.6c-0.1,0.3,0,0.5,0.2,0.8
			L40.8,27.7z"/>
		<path class="st0" d="M42.3,82.1l9.3-13.3L38.2,49.8v0L23.7,29.1c-0.2-0.2-0.5-0.4-0.8-0.4c0,0,0,0,0,0c-0.3,0-0.6,0.1-0.7,0.3
			C14,38.8,9.5,51.1,9.5,63.7c0,14.7,6.1,29,16.8,39.2c0.2,0.2,0.4,0.3,0.7,0.3c0,0,0.1,0,0.1,0c0.3,0,0.5-0.2,0.7-0.4L42.3,82.1
			L42.3,82.1z"/>
	</g>
	<g>
		<path class="st1" d="M134.5,108.2c-0.3,0-0.6-0.2-0.8-0.5c-0.1-0.3-0.1-0.6,0.1-0.9l26.6-37.9L126.9,21c-0.2-0.3-0.2-0.6-0.1-0.9
			c0.1-0.3,0.4-0.5,0.8-0.5h15.7c0.3,0,0.5,0.1,0.7,0.4l25.4,36.1L194.6,20c0.2-0.2,0.4-0.4,0.7-0.4h15.6c0.3,0,0.6,0.2,0.8,0.5
			c0.1,0.3,0.1,0.6-0.1,0.9l-60.8,86.8c-0.2,0.2-0.4,0.4-0.7,0.4L134.5,108.2L134.5,108.2z"/>
		<path class="st1" d="M225.1,108.4c-1.4,0-2.8-0.1-4.5-0.3C203.8,106,192,92.3,192,74.9c0-19.1,14.2-33.5,33.1-33.5
			c17.9,0,31,14,31.2,33.2c0,1.3,0,2.7-0.1,4l-0.2,1.7c0,0.4-0.4,0.8-0.9,0.8l-48.2,0l0.1,0.4c2.4,8.5,9.4,13.8,18.3,13.8
			c6.5,0,11.8-2.6,14.1-6.9c0.2-0.3,0.4-0.5,0.8-0.5h13.5c0.3,0,0.5,0.1,0.7,0.4c0.2,0.2,0.2,0.5,0.1,0.8l-0.4,1
			c-3.3,9.7-12.4,16.5-24.2,18C228.4,108.3,226.7,108.4,225.1,108.4z M224.6,54.5c-10.1,0.2-15.7,7.3-17.5,13.8l-0.1,0.4l34.5,0
			l-0.1-0.4c-1.9-8.5-8-13.7-16.2-13.8l-0.2,0L224.6,54.5L224.6,54.5L224.6,54.5z"/>
		<path class="st1" d="M290.3,108.7c-2.4,0-4.8-0.2-7.1-0.6c-11.6-1.9-19-8.5-21.4-19.1c-0.1-0.3,0-0.5,0.2-0.7
			c0.2-0.2,0.4-0.3,0.7-0.3h12.6c0.3,0,0.7,0.2,0.8,0.5c2.2,4.9,6.9,7.4,14.5,7.4c7.8,0,13-3,13-7.5c0-4.7-5.4-6.1-7.7-6.4
			l-13.3-2.3C266.4,77.1,263,68.3,263,61.2c0-12,10.5-20.1,26.1-20.1c10.5,0,23.5,4.3,27.1,16.2c0.3,0.9,0.7,2.3,0.8,3.3
			c0,0.3,0,0.5-0.2,0.7c-0.2,0.2-0.4,0.3-0.7,0.3H304c-0.4,0-0.7-0.2-0.8-0.6c-0.3-0.7-0.8-1.8-1.2-2.4c-2.7-4-8.3-4.9-12.8-4.9
			c-7.2,0-12,2.8-12,6.9c0,1.2,0,4.9,9.1,6.3l11.7,2c13.1,2.1,19.7,8.5,19.7,18.9c0,10.7-7.6,18.2-20.2,20.3
			C295,108.5,292.7,108.7,290.3,108.7z"/>
		<path class="st1" d="M342.4,106.9c-0.4,0-0.7-0.2-0.8-0.6l-23.4-62.3c-0.1-0.3-0.1-0.6,0.1-0.8c0.2-0.2,0.4-0.4,0.7-0.4h13.6
			c0.4,0,0.7,0.2,0.8,0.6l14,38.5l13-38.5c0.1-0.4,0.4-0.6,0.8-0.6l10.6,0c0.4,0,0.7,0.2,0.8,0.6l12.9,38.4l14.2-38.4
			c0.1-0.3,0.5-0.6,0.8-0.6l13.5,0c0.3,0,0.5,0.1,0.7,0.4c0.2,0.2,0.2,0.5,0.1,0.8l-23.4,62.3c-0.1,0.3-0.5,0.6-0.8,0.6h-10.6
			c-0.4,0-0.7-0.2-0.8-0.6l-12.7-37.8l-12.8,37.8c-0.1,0.4-0.4,0.6-0.8,0.6l0,0L342.4,106.9L342.4,106.9z"/>
		<path class="st1" d="M446.7,108.4c-1.4,0-2.9-0.1-4.3-0.3c-16.3-2.2-28.6-16.5-28.6-33.3c0-18.4,14.8-33.5,33-33.5
			c6.5,0,12.6,1.7,17.7,4.8l0.5,0.3v-3.1c0-0.5,0.4-0.9,0.9-0.9l12.5,0c0.2,0,0.5,0.1,0.6,0.3s0.3,0.4,0.3,0.6v62.9
			c0,0.5-0.4,0.9-0.9,0.9h-12.5c-0.5,0-0.9-0.4-0.9-0.9v-3l-0.5,0.3c-3.9,2.4-8.3,3.9-13,4.5C449.8,108.3,448.3,108.4,446.7,108.4z
			 M447.8,54.6c-10.9,0-19.7,9.1-19.7,20.2c0,5.5,2,10.7,5.7,14.5c3.7,3.8,8.7,5.9,14,5.9c6.9,0,12.9-3,17.1-8.7l0-23.2
			C460.7,57.6,454.8,54.6,447.8,54.6L447.8,54.6z"/>
		<path class="st1" d="M490.2,107.2c-0.5,0-0.9-0.4-0.9-0.9V43.4c0-0.5,0.4-0.9,0.9-0.9h12.5c0.5,0,0.9,0.4,0.9,0.9v5.2l0.5-0.4
			c5.5-4.5,12.2-6.8,19.4-6.8h2c0.5,0,0.9,0.4,0.9,0.9v12.1c0,0.5-0.4,0.9-0.8,0.9l-1.9,0.1c-8.3,0.2-15.4,4.3-20.1,11.5v39.6
			c0,0.2-0.1,0.5-0.3,0.6s-0.4,0.3-0.6,0.3L490.2,107.2L490.2,107.2z"/>
		<path class="st1" d="M559.3,108.4c-1.3,0-2.7-0.1-4.4-0.3c-16.9-2.1-28.7-15.8-28.7-33.3c0-19.1,14.2-33.5,33.1-33.5
			c17.9,0,31,14,31.2,33.2c0,1.3,0,2.7-0.1,4l-0.2,1.8c0,0.4-0.4,0.8-0.9,0.8h-1.8l-0.5,0l-45.8,0l0.1,0.4
			c2.4,8.5,9.4,13.8,18.3,13.8c6.5,0,11.8-2.6,14.1-6.9c0.2-0.3,0.4-0.5,0.8-0.5h13.6c0.3,0,0.5,0.1,0.7,0.4
			c0.2,0.2,0.2,0.5,0.1,0.8l-0.3,1c-3.3,9.7-12.6,16.6-24.4,18C562.4,108.3,560.8,108.4,559.3,108.4L559.3,108.4L559.3,108.4z
			 M559,54.5c-10.2,0-15.9,7.1-17.8,13.8l-0.1,0.4l34.5,0l-0.1-0.4C573.6,59.7,567.4,54.5,559,54.5L559,54.5z"/>
	</g>
</g>
</svg>
